<?xml version="1.0" standalone="no"?><!DOCTYPE svg PUBLIC "-//W3C//DTD SVG 1.1//EN" "http://www.w3.org/Graphics/SVG/1.1/DTD/svg11.dtd"><svg t="1546004937355" class="icon" style="" viewBox="0 0 1024 1024" version="1.1" xmlns="http://www.w3.org/2000/svg" p-id="1299" xmlns:xlink="http://www.w3.org/1999/xlink" width="128" height="128"><defs><style type="text/css"></style></defs><path d="M457.142857 684.068571v186.075429l96.768-96.804571a18.285714 18.285714 0 0 1 25.892572 25.892571l-128 128A18.285714 18.285714 0 0 1 420.571429 914.285714v-256a18.285714 18.285714 0 0 1 4.498285-11.995428l251.794286-289.865143a18.285714 18.285714 0 0 1 27.611429 23.990857l-233.910858 269.238857 337.005715 77.750857 83.236571-582.582857L158.354286 577.609143l162.157714 37.412571a18.285714 18.285714 0 0 1-8.228571 35.657143l-206.701715-47.725714a18.285714 18.285714 0 0 1-5.193143-33.536l804.571429-475.428572a18.285714 18.285714 0 0 1 27.392 18.285715l-91.428571 640a18.285714 18.285714 0 0 1-22.198858 15.250285L457.142857 684.068571z" p-id="1300"></path></svg>